<svg id="Toco_Wordmark" xmlns="http://www.w3.org/2000/svg" width="191" height="53.019" viewBox="0 0 191 53.019">
  <path id="Path_1" data-name="Path 1" d="M330.306,263.228a12.388,12.388,0,1,1-12.388-12.388,12.388,12.388,0,0,1,12.388,12.388m10.221,0a22.608,22.608,0,1,0-22.608,22.608,22.609,22.609,0,0,0,22.608-22.608" transform="translate(-240.957 -232.818)" fill="#fff"/>
  <path id="Path_2" data-name="Path 2" d="M609.226,263.228a12.388,12.388,0,1,1-12.388-12.388,12.388,12.388,0,0,1,12.388,12.388m10.221,0a22.608,22.608,0,1,0-22.609,22.608,22.609,22.609,0,0,0,22.609-22.608" transform="translate(-428.447 -232.818)" fill="#fff"/>
  <path id="Path_3" data-name="Path 3" d="M481.21,258.118a22.608,22.608,0,1,0,0,10.221H470.471a12.388,12.388,0,1,1,0-10.221Z" transform="translate(-335.919 -232.818)" fill="#fff"/>
  <path id="Path_4" data-name="Path 4" d="M183.056,255.822a15,15,0,0,1-23.258-5.228h8.093v-3.786h-9.26a15.248,15.248,0,0,1-.21-2.495h0v-2.537H167.9v-3.786h-9.473v-5.081h18.413v-8.415H158.422V216.82L147.9,219.5v4.992H129.5v8.415h18.4v5.078h-9.46v3.786h9.46v2.537c0,.842.043,1.672.125,2.495h-9.585v3.786h10.241a25.529,25.529,0,0,0,40.6,13.725Z" transform="translate(-129.5 -216.82)" fill="#fff"/>
</svg>
